<svg width="383" height="148" viewBox="0 0 383 148" fill="none" xmlns="http://www.w3.org/2000/svg">
<rect x="1" width="143" height="143" fill="#D9D9D9"/>
<g filter="url(#filter0_d_1_61)">
<rect x="4" y="3" width="32" height="32" rx="2" fill="#D2D2D2"/>
</g>
<g filter="url(#filter1_d_1_61)">
<rect x="39" y="3" width="32" height="32" rx="2" fill="#D2D2D2"/>
</g>
<g filter="url(#filter2_d_1_61)">
<rect x="74" y="3" width="32" height="32" rx="2" fill="#FFD37D"/>
</g>
<g filter="url(#filter3_d_1_61)">
<rect x="109" y="3" width="32" height="32" rx="2" fill="#FFD37D"/>
</g>
<g filter="url(#filter4_d_1_61)">
<rect x="4" y="73" width="32" height="32" rx="2" fill="#FF5454"/>
</g>
<g filter="url(#filter5_d_1_61)">
<rect x="39" y="73" width="32" height="32" rx="2" fill="#D2D2D2"/>
</g>
<g filter="url(#filter6_d_1_61)">
<rect x="74" y="73" width="32" height="32" rx="2" fill="#FFD37D"/>
</g>
<g filter="url(#filter7_d_1_61)">
<rect x="109" y="73" width="32" height="32" rx="2" fill="#FF5454"/>
</g>
<g filter="url(#filter8_d_1_61)">
<rect x="4" y="108" width="32" height="32" rx="2" fill="#F16B20"/>
</g>
<g filter="url(#filter9_d_1_61)">
<rect x="39" y="108" width="32" height="32" rx="2" fill="#FFD37D"/>
</g>
<g filter="url(#filter10_d_1_61)">
<rect x="74" y="108" width="32" height="32" rx="2" fill="#F1AA20"/>
</g>
<g filter="url(#filter11_d_1_61)">
<rect x="109" y="108" width="32" height="32" rx="2" fill="#F1AA20"/>
</g>
<g filter="url(#filter12_d_1_61)">
<rect x="4" y="38" width="32" height="32" rx="2" fill="#D2D2D2"/>
</g>
<g filter="url(#filter13_d_1_61)">
<rect x="39" y="38" width="32" height="32" rx="2" fill="#D2D2D2"/>
</g>
<g filter="url(#filter14_d_1_61)">
<rect x="74" y="38" width="32" height="32" rx="2" fill="#D2D2D2"/>
</g>
<g filter="url(#filter15_d_1_61)">
<rect x="109" y="38" width="32" height="32" rx="2" fill="#D2D2D2"/>
</g>
<g filter="url(#filter16_d_1_61)">
<rect x="163" y="40" width="16" height="16" rx="2" fill="white"/>
</g>
<path d="M122.271 23V22.233L125.151 19.0795C125.489 18.7102 125.768 18.3892 125.987 18.1165C126.205 17.8409 126.367 17.5824 126.472 17.3409C126.58 17.0966 126.634 16.8409 126.634 16.5739C126.634 16.267 126.56 16.0014 126.413 15.777C126.268 15.5526 126.069 15.3793 125.816 15.2571C125.563 15.1349 125.279 15.0739 124.964 15.0739C124.629 15.0739 124.336 15.1435 124.086 15.2827C123.839 15.419 123.647 15.6108 123.511 15.858C123.377 16.1051 123.31 16.3949 123.31 16.7273H122.305C122.305 16.2159 122.423 15.767 122.658 15.3807C122.894 14.9943 123.215 14.6932 123.621 14.4773C124.031 14.2614 124.489 14.1534 124.998 14.1534C125.509 14.1534 125.962 14.2614 126.357 14.4773C126.752 14.6932 127.062 14.9844 127.286 15.3509C127.511 15.7173 127.623 16.125 127.623 16.5739C127.623 16.8949 127.565 17.2088 127.448 17.5156C127.335 17.8196 127.136 18.1591 126.852 18.5341C126.57 18.9062 126.18 19.3608 125.68 19.8977L123.719 21.9943V22.0625H127.776V23H122.271Z" fill="white"/>
<path d="M87.2706 23V22.233L90.1513 19.0795C90.4893 18.7102 90.7678 18.3892 90.9865 18.1165C91.2053 17.8409 91.3672 17.5824 91.4723 17.3409C91.5803 17.0966 91.6342 16.8409 91.6342 16.5739C91.6342 16.267 91.5604 16.0014 91.4126 15.777C91.2678 15.5526 91.0689 15.3793 90.8161 15.2571C90.5632 15.1349 90.2791 15.0739 89.9638 15.0739C89.6286 15.0739 89.3359 15.1435 89.0859 15.2827C88.8388 15.419 88.647 15.6108 88.5107 15.858C88.3771 16.1051 88.3104 16.3949 88.3104 16.7273H87.3047C87.3047 16.2159 87.4226 15.767 87.6584 15.3807C87.8942 14.9943 88.2152 14.6932 88.6214 14.4773C89.0305 14.2614 89.4893 14.1534 89.9979 14.1534C90.5092 14.1534 90.9624 14.2614 91.3572 14.4773C91.7521 14.6932 92.0618 14.9844 92.2862 15.3509C92.5107 15.7173 92.6229 16.125 92.6229 16.5739C92.6229 16.8949 92.5646 17.2088 92.4482 17.5156C92.3345 17.8196 92.1357 18.1591 91.8516 18.5341C91.5703 18.9062 91.1797 19.3608 90.6797 19.8977L88.7195 21.9943V22.0625H92.7763V23H87.2706Z" fill="white"/>
<path d="M52.2706 128V127.233L55.1513 124.08C55.4893 123.71 55.7678 123.389 55.9865 123.116C56.2053 122.841 56.3672 122.582 56.4723 122.341C56.5803 122.097 56.6342 121.841 56.6342 121.574C56.6342 121.267 56.5604 121.001 56.4126 120.777C56.2678 120.553 56.0689 120.379 55.8161 120.257C55.5632 120.135 55.2791 120.074 54.9638 120.074C54.6286 120.074 54.3359 120.143 54.0859 120.283C53.8388 120.419 53.647 120.611 53.5107 120.858C53.3771 121.105 53.3104 121.395 53.3104 121.727H52.3047C52.3047 121.216 52.4226 120.767 52.6584 120.381C52.8942 119.994 53.2152 119.693 53.6214 119.477C54.0305 119.261 54.4893 119.153 54.9979 119.153C55.5092 119.153 55.9624 119.261 56.3572 119.477C56.7521 119.693 57.0618 119.984 57.2862 120.351C57.5107 120.717 57.6229 121.125 57.6229 121.574C57.6229 121.895 57.5646 122.209 57.4482 122.516C57.3345 122.82 57.1357 123.159 56.8516 123.534C56.5703 123.906 56.1797 124.361 55.6797 124.898L53.7195 126.994V127.062H57.7763V128H52.2706Z" fill="white"/>
<path d="M17.4384 84.2727V93H16.3816V85.3807H16.3304L14.1998 86.7955V85.7216L16.3816 84.2727H17.4384ZM22.8461 93.1193C22.4881 93.1136 22.1301 93.0455 21.7722 92.9148C21.4142 92.7841 21.0875 92.5639 20.7921 92.2543C20.4966 91.9418 20.2594 91.5199 20.0804 90.9886C19.9015 90.4545 19.812 89.7841 19.812 88.9773C19.812 88.2045 19.8844 87.5199 20.0293 86.9233C20.1742 86.3239 20.3844 85.8196 20.66 85.4105C20.9355 84.9986 21.2679 84.6861 21.6571 84.473C22.0492 84.2599 22.4909 84.1534 22.9824 84.1534C23.4711 84.1534 23.9057 84.2514 24.2864 84.4474C24.6699 84.6406 24.9824 84.9105 25.2239 85.2571C25.4654 85.6037 25.6216 86.0028 25.6926 86.4545H24.6529C24.5563 86.0625 24.3688 85.7372 24.0904 85.4787C23.812 85.2202 23.4426 85.0909 22.9824 85.0909C22.3063 85.0909 21.7736 85.3849 21.3844 85.973C20.998 86.5611 20.8034 87.3864 20.8006 88.4489H20.8688C21.0279 88.2074 21.2168 88.0014 21.4355 87.831C21.6571 87.6577 21.9015 87.5241 22.1685 87.4304C22.4355 87.3366 22.7182 87.2898 23.0165 87.2898C23.5165 87.2898 23.9739 87.4148 24.3887 87.6648C24.8034 87.9119 25.1358 88.2543 25.3858 88.6918C25.6358 89.1264 25.7608 89.625 25.7608 90.1875C25.7608 90.7273 25.6401 91.2216 25.3986 91.6705C25.1571 92.1165 24.8176 92.4716 24.3801 92.7358C23.9455 92.9972 23.4341 93.125 22.8461 93.1193ZM22.8461 92.1818C23.204 92.1818 23.525 92.0923 23.8091 91.9134C24.0961 91.7344 24.3219 91.4943 24.4867 91.1932C24.6543 90.892 24.7381 90.5568 24.7381 90.1875C24.7381 89.8267 24.6571 89.4986 24.4952 89.2031C24.3361 88.9048 24.1159 88.6676 23.8347 88.4915C23.5563 88.3153 23.2381 88.2273 22.8801 88.2273C22.6103 88.2273 22.3588 88.2812 22.1259 88.3892C21.8929 88.4943 21.6884 88.6392 21.5123 88.8239C21.339 89.0085 21.2026 89.2202 21.1032 89.4588C21.0037 89.6946 20.954 89.9432 20.954 90.2045C20.954 90.5511 21.035 90.875 21.1969 91.1761C21.3617 91.4773 21.5861 91.7202 21.8702 91.9048C22.1571 92.0895 22.4824 92.1818 22.8461 92.1818Z" fill="white"/>
<path d="M122.438 84.2727V93H121.382V85.3807H121.33L119.2 86.7955V85.7216L121.382 84.2727H122.438ZM127.846 93.1193C127.488 93.1136 127.13 93.0455 126.772 92.9148C126.414 92.7841 126.088 92.5639 125.792 92.2543C125.497 91.9418 125.259 91.5199 125.08 90.9886C124.901 90.4545 124.812 89.7841 124.812 88.9773C124.812 88.2045 124.884 87.5199 125.029 86.9233C125.174 86.3239 125.384 85.8196 125.66 85.4105C125.936 84.9986 126.268 84.6861 126.657 84.473C127.049 84.2599 127.491 84.1534 127.982 84.1534C128.471 84.1534 128.906 84.2514 129.286 84.4474C129.67 84.6406 129.982 84.9105 130.224 85.2571C130.465 85.6037 130.622 86.0028 130.693 86.4545H129.653C129.556 86.0625 129.369 85.7372 129.09 85.4787C128.812 85.2202 128.443 85.0909 127.982 85.0909C127.306 85.0909 126.774 85.3849 126.384 85.973C125.998 86.5611 125.803 87.3864 125.801 88.4489H125.869C126.028 88.2074 126.217 88.0014 126.436 87.831C126.657 87.6577 126.901 87.5241 127.169 87.4304C127.436 87.3366 127.718 87.2898 128.017 87.2898C128.517 87.2898 128.974 87.4148 129.389 87.6648C129.803 87.9119 130.136 88.2543 130.386 88.6918C130.636 89.1264 130.761 89.625 130.761 90.1875C130.761 90.7273 130.64 91.2216 130.399 91.6705C130.157 92.1165 129.818 92.4716 129.38 92.7358C128.945 92.9972 128.434 93.125 127.846 93.1193ZM127.846 92.1818C128.204 92.1818 128.525 92.0923 128.809 91.9134C129.096 91.7344 129.322 91.4943 129.487 91.1932C129.654 90.892 129.738 90.5568 129.738 90.1875C129.738 89.8267 129.657 89.4986 129.495 89.2031C129.336 88.9048 129.116 88.6676 128.835 88.4915C128.556 88.3153 128.238 88.2273 127.88 88.2273C127.61 88.2273 127.359 88.2812 127.126 88.3892C126.893 88.4943 126.688 88.6392 126.512 88.8239C126.339 89.0085 126.203 89.2202 126.103 89.4588C126.004 89.6946 125.954 89.9432 125.954 90.2045C125.954 90.5511 126.035 90.875 126.197 91.1761C126.362 91.4773 126.586 91.7202 126.87 91.9048C127.157 92.0895 127.482 92.1818 127.846 92.1818Z" fill="white"/>
<path d="M20.0016 128.119C19.4164 128.119 18.8993 128.016 18.4505 127.808C18.0044 127.598 17.6564 127.31 17.4064 126.943C17.1564 126.574 17.0328 126.153 17.0357 125.682C17.0328 125.312 17.1053 124.972 17.253 124.659C17.4007 124.344 17.6025 124.081 17.8581 123.871C18.1167 123.658 18.405 123.523 18.7232 123.466V123.415C18.3056 123.307 17.9732 123.072 17.726 122.712C17.4789 122.348 17.3567 121.935 17.3596 121.472C17.3567 121.028 17.4689 120.632 17.6962 120.283C17.9235 119.933 18.236 119.658 18.6337 119.456C19.0343 119.254 19.4902 119.153 20.0016 119.153C20.5073 119.153 20.959 119.254 21.3567 119.456C21.7544 119.658 22.0669 119.933 22.2942 120.283C22.5243 120.632 22.6408 121.028 22.6436 121.472C22.6408 121.935 22.5144 122.348 22.2644 122.712C22.0172 123.072 21.6891 123.307 21.28 123.415V123.466C21.5953 123.523 21.8794 123.658 22.1323 123.871C22.3851 124.081 22.5868 124.344 22.7374 124.659C22.888 124.972 22.9647 125.312 22.9675 125.682C22.9647 126.153 22.8368 126.574 22.584 126.943C22.334 127.31 21.986 127.598 21.54 127.808C21.0968 128.016 20.584 128.119 20.0016 128.119ZM20.0016 127.182C20.3965 127.182 20.7374 127.118 21.0243 126.99C21.3113 126.862 21.5328 126.682 21.6891 126.449C21.8453 126.216 21.9249 125.943 21.9277 125.631C21.9249 125.301 21.8397 125.01 21.6721 124.757C21.5044 124.504 21.2757 124.305 20.986 124.161C20.699 124.016 20.3709 123.943 20.0016 123.943C19.6294 123.943 19.2971 124.016 19.0044 124.161C18.7147 124.305 18.486 124.504 18.3184 124.757C18.1536 125.01 18.0726 125.301 18.0755 125.631C18.0726 125.943 18.1479 126.216 18.3013 126.449C18.4576 126.682 18.6806 126.862 18.9703 126.99C19.2601 127.118 19.6039 127.182 20.0016 127.182ZM20.0016 123.04C20.3141 123.04 20.5911 122.977 20.8326 122.852C21.0769 122.727 21.2686 122.553 21.4078 122.328C21.5471 122.104 21.6181 121.841 21.6209 121.54C21.6181 121.244 21.5485 120.987 21.4121 120.768C21.2757 120.547 21.0868 120.376 20.8453 120.257C20.6039 120.135 20.3226 120.074 20.0016 120.074C19.6749 120.074 19.3894 120.135 19.1451 120.257C18.9007 120.376 18.7118 120.547 18.5783 120.768C18.4448 120.987 18.3794 121.244 18.3823 121.54C18.3794 121.841 18.4462 122.104 18.5826 122.328C18.7218 122.553 18.9135 122.727 19.1578 122.852C19.4022 122.977 19.6834 123.04 20.0016 123.04Z" fill="white"/>
<path d="M87.2706 93V92.233L90.1513 89.0795C90.4893 88.7102 90.7678 88.3892 90.9865 88.1165C91.2053 87.8409 91.3672 87.5824 91.4723 87.3409C91.5803 87.0966 91.6342 86.8409 91.6342 86.5739C91.6342 86.267 91.5604 86.0014 91.4126 85.777C91.2678 85.5526 91.0689 85.3793 90.8161 85.2571C90.5632 85.1349 90.2791 85.0739 89.9638 85.0739C89.6286 85.0739 89.3359 85.1435 89.0859 85.2827C88.8388 85.419 88.647 85.6108 88.5107 85.858C88.3771 86.1051 88.3104 86.3949 88.3104 86.7273H87.3047C87.3047 86.2159 87.4226 85.767 87.6584 85.3807C87.8942 84.9943 88.2152 84.6932 88.6214 84.4773C89.0305 84.2614 89.4893 84.1534 89.9979 84.1534C90.5092 84.1534 90.9624 84.2614 91.3572 84.4773C91.7521 84.6932 92.0618 84.9844 92.2862 85.3509C92.5107 85.7173 92.6229 86.125 92.6229 86.5739C92.6229 86.8949 92.5646 87.2088 92.4482 87.5156C92.3345 87.8196 92.1357 88.1591 91.8516 88.5341C91.5703 88.9062 91.1797 89.3608 90.6797 89.8977L88.7195 91.9943V92.0625H92.7763V93H87.2706Z" fill="white"/>
<path d="M86.8493 126.21V125.341L90.6845 119.273H91.3152V120.619H90.889L87.9913 125.205V125.273H93.1561V126.21H86.8493ZM90.9572 128V125.946V125.541V119.273H91.9629V128H90.9572Z" fill="white"/>
<path d="M121.849 126.21V125.341L125.684 119.273H126.315V120.619H125.889L122.991 125.205V125.273H128.156V126.21H121.849ZM125.957 128V125.946V125.541V119.273H126.963V128H125.957Z" fill="white"/>
<rect x="239" width="143" height="143" fill="#D9D9D9"/>
<g filter="url(#filter17_d_1_61)">
<rect x="242" y="3" width="32" height="32" rx="2" fill="#D2D2D2"/>
</g>
<g filter="url(#filter18_d_1_61)">
<rect x="277" y="3" width="32" height="32" rx="2" fill="#D2D2D2"/>
</g>
<g filter="url(#filter19_d_1_61)">
<rect x="312" y="3" width="32" height="32" rx="2" fill="#D2D2D2"/>
</g>
<g filter="url(#filter20_d_1_61)">
<rect x="347" y="3" width="32" height="32" rx="2" fill="#F1AA20"/>
</g>
<g filter="url(#filter21_d_1_61)">
<rect x="242" y="73" width="32" height="32" rx="2" fill="#D2D2D2"/>
</g>
<g filter="url(#filter22_d_1_61)">
<rect x="277" y="73" width="32" height="32" rx="2" fill="#FF5454"/>
</g>
<g filter="url(#filter23_d_1_61)">
<rect x="312" y="73" width="32" height="32" rx="2" fill="#FFD37D"/>
</g>
<g filter="url(#filter24_d_1_61)">
<rect x="347" y="73" width="32" height="32" rx="2" fill="#FF5454"/>
</g>
<g filter="url(#filter25_d_1_61)">
<rect x="242" y="108" width="32" height="32" rx="2" fill="#D2D2D2"/>
</g>
<g filter="url(#filter26_d_1_61)">
<rect x="277" y="108" width="32" height="32" rx="2" fill="#F16B20"/>
</g>
<g filter="url(#filter27_d_1_61)">
<rect x="312" y="108" width="32" height="32" rx="2" fill="#FFD37D"/>
</g>
<g filter="url(#filter28_d_1_61)">
<rect x="347" y="108" width="32" height="32" rx="2" fill="#F16B20"/>
</g>
<g filter="url(#filter29_d_1_61)">
<rect x="242" y="38" width="32" height="32" rx="2" fill="#D2D2D2"/>
</g>
<g filter="url(#filter30_d_1_61)">
<rect x="277" y="38" width="32" height="32" rx="2" fill="#D2D2D2"/>
</g>
<g filter="url(#filter31_d_1_61)">
<rect x="312" y="38" width="32" height="32" rx="2" fill="#D2D2D2"/>
</g>
<g filter="url(#filter32_d_1_61)">
<rect x="347" y="38" width="32" height="32" rx="2" fill="#D2D2D2"/>
</g>
<path d="M359.849 21.2102V20.3409L363.684 14.2727H364.315V15.6193H363.889L360.991 20.2045V20.2727H366.156V21.2102H359.849ZM363.957 23V20.946V20.5412V14.2727H364.963V23H363.957Z" fill="white"/>
<path d="M293.002 128.119C292.416 128.119 291.899 128.016 291.45 127.808C291.004 127.598 290.656 127.31 290.406 126.943C290.156 126.574 290.033 126.153 290.036 125.682C290.033 125.312 290.105 124.972 290.253 124.659C290.401 124.344 290.602 124.081 290.858 123.871C291.117 123.658 291.405 123.523 291.723 123.466V123.415C291.306 123.307 290.973 123.072 290.726 122.712C290.479 122.348 290.357 121.935 290.36 121.472C290.357 121.028 290.469 120.632 290.696 120.283C290.923 119.933 291.236 119.658 291.634 119.456C292.034 119.254 292.49 119.153 293.002 119.153C293.507 119.153 293.959 119.254 294.357 119.456C294.754 119.658 295.067 119.933 295.294 120.283C295.524 120.632 295.641 121.028 295.644 121.472C295.641 121.935 295.514 122.348 295.264 122.712C295.017 123.072 294.689 123.307 294.28 123.415V123.466C294.595 123.523 294.879 123.658 295.132 123.871C295.385 124.081 295.587 124.344 295.737 124.659C295.888 124.972 295.965 125.312 295.968 125.682C295.965 126.153 295.837 126.574 295.584 126.943C295.334 127.31 294.986 127.598 294.54 127.808C294.097 128.016 293.584 128.119 293.002 128.119ZM293.002 127.182C293.396 127.182 293.737 127.118 294.024 126.99C294.311 126.862 294.533 126.682 294.689 126.449C294.845 126.216 294.925 125.943 294.928 125.631C294.925 125.301 294.84 125.01 294.672 124.757C294.504 124.504 294.276 124.305 293.986 124.161C293.699 124.016 293.371 123.943 293.002 123.943C292.629 123.943 292.297 124.016 292.004 124.161C291.715 124.305 291.486 124.504 291.318 124.757C291.154 125.01 291.073 125.301 291.075 125.631C291.073 125.943 291.148 126.216 291.301 126.449C291.458 126.682 291.681 126.862 291.97 126.99C292.26 127.118 292.604 127.182 293.002 127.182ZM293.002 123.04C293.314 123.04 293.591 122.977 293.833 122.852C294.077 122.727 294.269 122.553 294.408 122.328C294.547 122.104 294.618 121.841 294.621 121.54C294.618 121.244 294.548 120.987 294.412 120.768C294.276 120.547 294.087 120.376 293.845 120.257C293.604 120.135 293.323 120.074 293.002 120.074C292.675 120.074 292.389 120.135 292.145 120.257C291.901 120.376 291.712 120.547 291.578 120.768C291.445 120.987 291.379 121.244 291.382 121.54C291.379 121.841 291.446 122.104 291.583 122.328C291.722 122.553 291.914 122.727 292.158 122.852C292.402 122.977 292.683 123.04 293.002 123.04Z" fill="white"/>
<path d="M290.438 84.2727V93H289.382V85.3807H289.33L287.2 86.7955V85.7216L289.382 84.2727H290.438ZM295.846 93.1193C295.488 93.1136 295.13 93.0455 294.772 92.9148C294.414 92.7841 294.088 92.5639 293.792 92.2543C293.497 91.9418 293.259 91.5199 293.08 90.9886C292.901 90.4545 292.812 89.7841 292.812 88.9773C292.812 88.2045 292.884 87.5199 293.029 86.9233C293.174 86.3239 293.384 85.8196 293.66 85.4105C293.936 84.9986 294.268 84.6861 294.657 84.473C295.049 84.2599 295.491 84.1534 295.982 84.1534C296.471 84.1534 296.906 84.2514 297.286 84.4474C297.67 84.6406 297.982 84.9105 298.224 85.2571C298.465 85.6037 298.622 86.0028 298.693 86.4545H297.653C297.556 86.0625 297.369 85.7372 297.09 85.4787C296.812 85.2202 296.443 85.0909 295.982 85.0909C295.306 85.0909 294.774 85.3849 294.384 85.973C293.998 86.5611 293.803 87.3864 293.801 88.4489H293.869C294.028 88.2074 294.217 88.0014 294.436 87.831C294.657 87.6577 294.901 87.5241 295.169 87.4304C295.436 87.3366 295.718 87.2898 296.017 87.2898C296.517 87.2898 296.974 87.4148 297.389 87.6648C297.803 87.9119 298.136 88.2543 298.386 88.6918C298.636 89.1264 298.761 89.625 298.761 90.1875C298.761 90.7273 298.64 91.2216 298.399 91.6705C298.157 92.1165 297.818 92.4716 297.38 92.7358C296.945 92.9972 296.434 93.125 295.846 93.1193ZM295.846 92.1818C296.204 92.1818 296.525 92.0923 296.809 91.9134C297.096 91.7344 297.322 91.4943 297.487 91.1932C297.654 90.892 297.738 90.5568 297.738 90.1875C297.738 89.8267 297.657 89.4986 297.495 89.2031C297.336 88.9048 297.116 88.6676 296.835 88.4915C296.556 88.3153 296.238 88.2273 295.88 88.2273C295.61 88.2273 295.359 88.2812 295.126 88.3892C294.893 88.4943 294.688 88.6392 294.512 88.8239C294.339 89.0085 294.203 89.2202 294.103 89.4588C294.004 89.6946 293.954 89.9432 293.954 90.2045C293.954 90.5511 294.035 90.875 294.197 91.1761C294.362 91.4773 294.586 91.7202 294.87 91.9048C295.157 92.0895 295.482 92.1818 295.846 92.1818Z" fill="white"/>
<path d="M360.438 84.2727V93H359.382V85.3807H359.33L357.2 86.7955V85.7216L359.382 84.2727H360.438ZM365.846 93.1193C365.488 93.1136 365.13 93.0455 364.772 92.9148C364.414 92.7841 364.088 92.5639 363.792 92.2543C363.497 91.9418 363.259 91.5199 363.08 90.9886C362.901 90.4545 362.812 89.7841 362.812 88.9773C362.812 88.2045 362.884 87.5199 363.029 86.9233C363.174 86.3239 363.384 85.8196 363.66 85.4105C363.936 84.9986 364.268 84.6861 364.657 84.473C365.049 84.2599 365.491 84.1534 365.982 84.1534C366.471 84.1534 366.906 84.2514 367.286 84.4474C367.67 84.6406 367.982 84.9105 368.224 85.2571C368.465 85.6037 368.622 86.0028 368.693 86.4545H367.653C367.556 86.0625 367.369 85.7372 367.09 85.4787C366.812 85.2202 366.443 85.0909 365.982 85.0909C365.306 85.0909 364.774 85.3849 364.384 85.973C363.998 86.5611 363.803 87.3864 363.801 88.4489H363.869C364.028 88.2074 364.217 88.0014 364.436 87.831C364.657 87.6577 364.901 87.5241 365.169 87.4304C365.436 87.3366 365.718 87.2898 366.017 87.2898C366.517 87.2898 366.974 87.4148 367.389 87.6648C367.803 87.9119 368.136 88.2543 368.386 88.6918C368.636 89.1264 368.761 89.625 368.761 90.1875C368.761 90.7273 368.64 91.2216 368.399 91.6705C368.157 92.1165 367.818 92.4716 367.38 92.7358C366.945 92.9972 366.434 93.125 365.846 93.1193ZM365.846 92.1818C366.204 92.1818 366.525 92.0923 366.809 91.9134C367.096 91.7344 367.322 91.4943 367.487 91.1932C367.654 90.892 367.738 90.5568 367.738 90.1875C367.738 89.8267 367.657 89.4986 367.495 89.2031C367.336 88.9048 367.116 88.6676 366.835 88.4915C366.556 88.3153 366.238 88.2273 365.88 88.2273C365.61 88.2273 365.359 88.2812 365.126 88.3892C364.893 88.4943 364.688 88.6392 364.512 88.8239C364.339 89.0085 364.203 89.2202 364.103 89.4588C364.004 89.6946 363.954 89.9432 363.954 90.2045C363.954 90.5511 364.035 90.875 364.197 91.1761C364.362 91.4773 364.586 91.7202 364.87 91.9048C365.157 92.0895 365.482 92.1818 365.846 92.1818Z" fill="white"/>
<path d="M325.271 93V92.233L328.151 89.0795C328.489 88.7102 328.768 88.3892 328.987 88.1165C329.205 87.8409 329.367 87.5824 329.472 87.3409C329.58 87.0966 329.634 86.8409 329.634 86.5739C329.634 86.267 329.56 86.0014 329.413 85.777C329.268 85.5526 329.069 85.3793 328.816 85.2571C328.563 85.1349 328.279 85.0739 327.964 85.0739C327.629 85.0739 327.336 85.1435 327.086 85.2827C326.839 85.419 326.647 85.6108 326.511 85.858C326.377 86.1051 326.31 86.3949 326.31 86.7273H325.305C325.305 86.2159 325.423 85.767 325.658 85.3807C325.894 84.9943 326.215 84.6932 326.621 84.4773C327.031 84.2614 327.489 84.1534 327.998 84.1534C328.509 84.1534 328.962 84.2614 329.357 84.4773C329.752 84.6932 330.062 84.9844 330.286 85.3509C330.511 85.7173 330.623 86.125 330.623 86.5739C330.623 86.8949 330.565 87.2088 330.448 87.5156C330.335 87.8196 330.136 88.1591 329.852 88.5341C329.57 88.9062 329.18 89.3608 328.68 89.8977L326.719 91.9943V92.0625H330.776V93H325.271Z" fill="white"/>
<path d="M325.271 128V127.233L328.151 124.08C328.489 123.71 328.768 123.389 328.987 123.116C329.205 122.841 329.367 122.582 329.472 122.341C329.58 122.097 329.634 121.841 329.634 121.574C329.634 121.267 329.56 121.001 329.413 120.777C329.268 120.553 329.069 120.379 328.816 120.257C328.563 120.135 328.279 120.074 327.964 120.074C327.629 120.074 327.336 120.143 327.086 120.283C326.839 120.419 326.647 120.611 326.511 120.858C326.377 121.105 326.31 121.395 326.31 121.727H325.305C325.305 121.216 325.423 120.767 325.658 120.381C325.894 119.994 326.215 119.693 326.621 119.477C327.031 119.261 327.489 119.153 327.998 119.153C328.509 119.153 328.962 119.261 329.357 119.477C329.752 119.693 330.062 119.984 330.286 120.351C330.511 120.717 330.623 121.125 330.623 121.574C330.623 121.895 330.565 122.209 330.448 122.516C330.335 122.82 330.136 123.159 329.852 123.534C329.57 123.906 329.18 124.361 328.68 124.898L326.719 126.994V127.062H330.776V128H325.271Z" fill="white"/>
<path d="M363.002 128.119C362.416 128.119 361.899 128.016 361.45 127.808C361.004 127.598 360.656 127.31 360.406 126.943C360.156 126.574 360.033 126.153 360.036 125.682C360.033 125.312 360.105 124.972 360.253 124.659C360.401 124.344 360.602 124.081 360.858 123.871C361.117 123.658 361.405 123.523 361.723 123.466V123.415C361.306 123.307 360.973 123.072 360.726 122.712C360.479 122.348 360.357 121.935 360.36 121.472C360.357 121.028 360.469 120.632 360.696 120.283C360.923 119.933 361.236 119.658 361.634 119.456C362.034 119.254 362.49 119.153 363.002 119.153C363.507 119.153 363.959 119.254 364.357 119.456C364.754 119.658 365.067 119.933 365.294 120.283C365.524 120.632 365.641 121.028 365.644 121.472C365.641 121.935 365.514 122.348 365.264 122.712C365.017 123.072 364.689 123.307 364.28 123.415V123.466C364.595 123.523 364.879 123.658 365.132 123.871C365.385 124.081 365.587 124.344 365.737 124.659C365.888 124.972 365.965 125.312 365.968 125.682C365.965 126.153 365.837 126.574 365.584 126.943C365.334 127.31 364.986 127.598 364.54 127.808C364.097 128.016 363.584 128.119 363.002 128.119ZM363.002 127.182C363.396 127.182 363.737 127.118 364.024 126.99C364.311 126.862 364.533 126.682 364.689 126.449C364.845 126.216 364.925 125.943 364.928 125.631C364.925 125.301 364.84 125.01 364.672 124.757C364.504 124.504 364.276 124.305 363.986 124.161C363.699 124.016 363.371 123.943 363.002 123.943C362.629 123.943 362.297 124.016 362.004 124.161C361.715 124.305 361.486 124.504 361.318 124.757C361.154 125.01 361.073 125.301 361.075 125.631C361.073 125.943 361.148 126.216 361.301 126.449C361.458 126.682 361.681 126.862 361.97 126.99C362.26 127.118 362.604 127.182 363.002 127.182ZM363.002 123.04C363.314 123.04 363.591 122.977 363.833 122.852C364.077 122.727 364.269 122.553 364.408 122.328C364.547 122.104 364.618 121.841 364.621 121.54C364.618 121.244 364.548 120.987 364.412 120.768C364.276 120.547 364.087 120.376 363.845 120.257C363.604 120.135 363.323 120.074 363.002 120.074C362.675 120.074 362.389 120.135 362.145 120.257C361.901 120.376 361.712 120.547 361.578 120.768C361.445 120.987 361.379 121.244 361.382 121.54C361.379 121.841 361.446 122.104 361.583 122.328C361.722 122.553 361.914 122.727 362.158 122.852C362.402 122.977 362.683 123.04 363.002 123.04Z" fill="white"/>
<path d="M229.061 72.0607C229.646 71.4749 229.646 70.5251 229.061 69.9393L219.515 60.3934C218.929 59.8076 217.979 59.8076 217.393 60.3934C216.808 60.9792 216.808 61.9289 217.393 62.5147L225.879 71L217.393 79.4853C216.808 80.0711 216.808 81.0208 217.393 81.6066C217.979 82.1924 218.929 82.1924 219.515 81.6066L229.061 72.0607ZM155 72.5H228V69.5H155V72.5Z" fill="white"/>
<path d="M170.438 52H167.744V43.2727H170.557C171.403 43.2727 172.128 43.4474 172.73 43.7969C173.332 44.1435 173.794 44.642 174.115 45.2926C174.436 45.9403 174.597 46.7159 174.597 47.6193C174.597 48.5284 174.435 49.3111 174.111 49.9673C173.787 50.6207 173.315 51.1236 172.696 51.4759C172.077 51.8253 171.324 52 170.438 52ZM168.801 51.0625H170.369C171.091 51.0625 171.689 50.9233 172.163 50.6449C172.638 50.3665 172.991 49.9702 173.224 49.456C173.457 48.9418 173.574 48.3295 173.574 47.6193C173.574 46.9148 173.459 46.3082 173.229 45.7997C172.999 45.2884 172.655 44.8963 172.197 44.6236C171.74 44.348 171.17 44.2102 170.489 44.2102H168.801V51.0625Z" fill="black"/>
<path d="M185.088 47.1676V48.1051H181.27V47.1676H185.088ZM186.994 52V43.2727H188.051V47.6023H188.153L192.074 43.2727H193.455L189.79 47.2102L193.455 52H192.176L189.142 47.9432L188.051 49.1705V52H186.994ZM195.692 48.0625V52H194.686V45.4545H195.658V46.4773H195.743C195.896 46.1449 196.129 45.8778 196.442 45.6761C196.754 45.4716 197.158 45.3693 197.652 45.3693C198.095 45.3693 198.483 45.4602 198.815 45.642C199.148 45.821 199.406 46.0938 199.591 46.4602C199.776 46.8239 199.868 47.2841 199.868 47.8409V52H198.862V47.9091C198.862 47.3949 198.729 46.9943 198.462 46.7074C198.195 46.4176 197.828 46.2727 197.362 46.2727C197.041 46.2727 196.754 46.3423 196.501 46.4815C196.251 46.6207 196.054 46.8239 195.909 47.0909C195.764 47.358 195.692 47.6818 195.692 48.0625ZM204.365 52.1364C203.774 52.1364 203.255 51.9957 202.809 51.7145C202.366 51.4332 202.02 51.0398 201.77 50.5341C201.522 50.0284 201.399 49.4375 201.399 48.7614C201.399 48.0795 201.522 47.4844 201.77 46.9759C202.02 46.4673 202.366 46.0724 202.809 45.7912C203.255 45.5099 203.774 45.3693 204.365 45.3693C204.956 45.3693 205.473 45.5099 205.916 45.7912C206.362 46.0724 206.708 46.4673 206.956 46.9759C207.206 47.4844 207.331 48.0795 207.331 48.7614C207.331 49.4375 207.206 50.0284 206.956 50.5341C206.708 51.0398 206.362 51.4332 205.916 51.7145C205.473 51.9957 204.956 52.1364 204.365 52.1364ZM204.365 51.233C204.814 51.233 205.183 51.1179 205.473 50.8878C205.762 50.6577 205.977 50.3551 206.116 49.9801C206.255 49.6051 206.325 49.1989 206.325 48.7614C206.325 48.3239 206.255 47.9162 206.116 47.5384C205.977 47.1605 205.762 46.8551 205.473 46.6222C205.183 46.3892 204.814 46.2727 204.365 46.2727C203.916 46.2727 203.547 46.3892 203.257 46.6222C202.967 46.8551 202.752 47.1605 202.613 47.5384C202.474 47.9162 202.404 48.3239 202.404 48.7614C202.404 49.1989 202.474 49.6051 202.613 49.9801C202.752 50.3551 202.967 50.6577 203.257 50.8878C203.547 51.1179 203.916 51.233 204.365 51.233ZM208.866 54.4545V45.4545H209.837V46.4943H209.957C210.031 46.3807 210.133 46.2358 210.263 46.0597C210.397 45.8807 210.587 45.7216 210.835 45.5824C211.085 45.4403 211.423 45.3693 211.849 45.3693C212.4 45.3693 212.886 45.5071 213.306 45.7827C213.727 46.0582 214.055 46.4489 214.29 46.9545C214.526 47.4602 214.644 48.0568 214.644 48.7443C214.644 49.4375 214.526 50.0384 214.29 50.5469C214.055 51.0526 213.728 51.4446 213.31 51.723C212.893 51.9986 212.411 52.1364 211.866 52.1364C211.445 52.1364 211.109 52.0668 210.856 51.9276C210.603 51.7855 210.408 51.625 210.272 51.446C210.136 51.2642 210.031 51.1136 209.957 50.9943H209.871V54.4545H208.866ZM209.854 48.7273C209.854 49.2216 209.927 49.6577 210.072 50.0355C210.217 50.4105 210.428 50.7045 210.707 50.9176C210.985 51.1278 211.326 51.233 211.729 51.233C212.15 51.233 212.501 51.1222 212.782 50.9006C213.066 50.6761 213.279 50.375 213.421 49.9972C213.566 49.6165 213.638 49.1932 213.638 48.7273C213.638 48.267 213.567 47.8523 213.425 47.483C213.286 47.1108 213.075 46.8168 212.79 46.6009C212.509 46.3821 212.156 46.2727 211.729 46.2727C211.32 46.2727 210.977 46.3764 210.698 46.5838C210.42 46.7884 210.21 47.0753 210.067 47.4446C209.925 47.8111 209.854 48.2386 209.854 48.7273ZM219.093 45.4545V46.3068H215.565V45.4545H219.093ZM216.621 52V44.5511C216.621 44.1761 216.71 43.8636 216.886 43.6136C217.062 43.3636 217.29 43.1761 217.572 43.0511C217.853 42.9261 218.15 42.8636 218.462 42.8636C218.71 42.8636 218.911 42.8835 219.067 42.9233C219.224 42.9631 219.34 43 219.417 43.0341L219.127 43.9034C219.076 43.8864 219.005 43.8651 218.914 43.8395C218.826 43.8139 218.71 43.8011 218.565 43.8011C218.232 43.8011 217.992 43.8849 217.844 44.0526C217.7 44.2202 217.627 44.4659 217.627 44.7898V52H216.621Z" fill="white"/>
<defs>
<filter id="filter0_d_1_61" x="0" y="3" width="40" height="40" filterUnits="userSpaceOnUse" color-interpolation-filters="sRGB">
<feFlood flood-opacity="0" result="BackgroundImageFix"/>
<feColorMatrix in="SourceAlpha" type="matrix" values="0 0 0 0 0 0 0 0 0 0 0 0 0 0 0 0 0 0 127 0" result="hardAlpha"/>
<feOffset dy="4"/>
<feGaussianBlur stdDeviation="2"/>
<feComposite in2="hardAlpha" operator="out"/>
<feColorMatrix type="matrix" values="0 0 0 0 0 0 0 0 0 0 0 0 0 0 0 0 0 0 0.25 0"/>
<feBlend mode="normal" in2="BackgroundImageFix" result="effect1_dropShadow_1_61"/>
<feBlend mode="normal" in="SourceGraphic" in2="effect1_dropShadow_1_61" result="shape"/>
</filter>
<filter id="filter1_d_1_61" x="35" y="3" width="40" height="40" filterUnits="userSpaceOnUse" color-interpolation-filters="sRGB">
<feFlood flood-opacity="0" result="BackgroundImageFix"/>
<feColorMatrix in="SourceAlpha" type="matrix" values="0 0 0 0 0 0 0 0 0 0 0 0 0 0 0 0 0 0 127 0" result="hardAlpha"/>
<feOffset dy="4"/>
<feGaussianBlur stdDeviation="2"/>
<feComposite in2="hardAlpha" operator="out"/>
<feColorMatrix type="matrix" values="0 0 0 0 0 0 0 0 0 0 0 0 0 0 0 0 0 0 0.25 0"/>
<feBlend mode="normal" in2="BackgroundImageFix" result="effect1_dropShadow_1_61"/>
<feBlend mode="normal" in="SourceGraphic" in2="effect1_dropShadow_1_61" result="shape"/>
</filter>
<filter id="filter2_d_1_61" x="70" y="3" width="40" height="40" filterUnits="userSpaceOnUse" color-interpolation-filters="sRGB">
<feFlood flood-opacity="0" result="BackgroundImageFix"/>
<feColorMatrix in="SourceAlpha" type="matrix" values="0 0 0 0 0 0 0 0 0 0 0 0 0 0 0 0 0 0 127 0" result="hardAlpha"/>
<feOffset dy="4"/>
<feGaussianBlur stdDeviation="2"/>
<feComposite in2="hardAlpha" operator="out"/>
<feColorMatrix type="matrix" values="0 0 0 0 0 0 0 0 0 0 0 0 0 0 0 0 0 0 0.25 0"/>
<feBlend mode="normal" in2="BackgroundImageFix" result="effect1_dropShadow_1_61"/>
<feBlend mode="normal" in="SourceGraphic" in2="effect1_dropShadow_1_61" result="shape"/>
</filter>
<filter id="filter3_d_1_61" x="105" y="3" width="40" height="40" filterUnits="userSpaceOnUse" color-interpolation-filters="sRGB">
<feFlood flood-opacity="0" result="BackgroundImageFix"/>
<feColorMatrix in="SourceAlpha" type="matrix" values="0 0 0 0 0 0 0 0 0 0 0 0 0 0 0 0 0 0 127 0" result="hardAlpha"/>
<feOffset dy="4"/>
<feGaussianBlur stdDeviation="2"/>
<feComposite in2="hardAlpha" operator="out"/>
<feColorMatrix type="matrix" values="0 0 0 0 0 0 0 0 0 0 0 0 0 0 0 0 0 0 0.25 0"/>
<feBlend mode="normal" in2="BackgroundImageFix" result="effect1_dropShadow_1_61"/>
<feBlend mode="normal" in="SourceGraphic" in2="effect1_dropShadow_1_61" result="shape"/>
</filter>
<filter id="filter4_d_1_61" x="0" y="73" width="40" height="40" filterUnits="userSpaceOnUse" color-interpolation-filters="sRGB">
<feFlood flood-opacity="0" result="BackgroundImageFix"/>
<feColorMatrix in="SourceAlpha" type="matrix" values="0 0 0 0 0 0 0 0 0 0 0 0 0 0 0 0 0 0 127 0" result="hardAlpha"/>
<feOffset dy="4"/>
<feGaussianBlur stdDeviation="2"/>
<feComposite in2="hardAlpha" operator="out"/>
<feColorMatrix type="matrix" values="0 0 0 0 0 0 0 0 0 0 0 0 0 0 0 0 0 0 0.25 0"/>
<feBlend mode="normal" in2="BackgroundImageFix" result="effect1_dropShadow_1_61"/>
<feBlend mode="normal" in="SourceGraphic" in2="effect1_dropShadow_1_61" result="shape"/>
</filter>
<filter id="filter5_d_1_61" x="35" y="73" width="40" height="40" filterUnits="userSpaceOnUse" color-interpolation-filters="sRGB">
<feFlood flood-opacity="0" result="BackgroundImageFix"/>
<feColorMatrix in="SourceAlpha" type="matrix" values="0 0 0 0 0 0 0 0 0 0 0 0 0 0 0 0 0 0 127 0" result="hardAlpha"/>
<feOffset dy="4"/>
<feGaussianBlur stdDeviation="2"/>
<feComposite in2="hardAlpha" operator="out"/>
<feColorMatrix type="matrix" values="0 0 0 0 0 0 0 0 0 0 0 0 0 0 0 0 0 0 0.25 0"/>
<feBlend mode="normal" in2="BackgroundImageFix" result="effect1_dropShadow_1_61"/>
<feBlend mode="normal" in="SourceGraphic" in2="effect1_dropShadow_1_61" result="shape"/>
</filter>
<filter id="filter6_d_1_61" x="70" y="73" width="40" height="40" filterUnits="userSpaceOnUse" color-interpolation-filters="sRGB">
<feFlood flood-opacity="0" result="BackgroundImageFix"/>
<feColorMatrix in="SourceAlpha" type="matrix" values="0 0 0 0 0 0 0 0 0 0 0 0 0 0 0 0 0 0 127 0" result="hardAlpha"/>
<feOffset dy="4"/>
<feGaussianBlur stdDeviation="2"/>
<feComposite in2="hardAlpha" operator="out"/>
<feColorMatrix type="matrix" values="0 0 0 0 0 0 0 0 0 0 0 0 0 0 0 0 0 0 0.25 0"/>
<feBlend mode="normal" in2="BackgroundImageFix" result="effect1_dropShadow_1_61"/>
<feBlend mode="normal" in="SourceGraphic" in2="effect1_dropShadow_1_61" result="shape"/>
</filter>
<filter id="filter7_d_1_61" x="105" y="73" width="40" height="40" filterUnits="userSpaceOnUse" color-interpolation-filters="sRGB">
<feFlood flood-opacity="0" result="BackgroundImageFix"/>
<feColorMatrix in="SourceAlpha" type="matrix" values="0 0 0 0 0 0 0 0 0 0 0 0 0 0 0 0 0 0 127 0" result="hardAlpha"/>
<feOffset dy="4"/>
<feGaussianBlur stdDeviation="2"/>
<feComposite in2="hardAlpha" operator="out"/>
<feColorMatrix type="matrix" values="0 0 0 0 0 0 0 0 0 0 0 0 0 0 0 0 0 0 0.25 0"/>
<feBlend mode="normal" in2="BackgroundImageFix" result="effect1_dropShadow_1_61"/>
<feBlend mode="normal" in="SourceGraphic" in2="effect1_dropShadow_1_61" result="shape"/>
</filter>
<filter id="filter8_d_1_61" x="0" y="108" width="40" height="40" filterUnits="userSpaceOnUse" color-interpolation-filters="sRGB">
<feFlood flood-opacity="0" result="BackgroundImageFix"/>
<feColorMatrix in="SourceAlpha" type="matrix" values="0 0 0 0 0 0 0 0 0 0 0 0 0 0 0 0 0 0 127 0" result="hardAlpha"/>
<feOffset dy="4"/>
<feGaussianBlur stdDeviation="2"/>
<feComposite in2="hardAlpha" operator="out"/>
<feColorMatrix type="matrix" values="0 0 0 0 0 0 0 0 0 0 0 0 0 0 0 0 0 0 0.25 0"/>
<feBlend mode="normal" in2="BackgroundImageFix" result="effect1_dropShadow_1_61"/>
<feBlend mode="normal" in="SourceGraphic" in2="effect1_dropShadow_1_61" result="shape"/>
</filter>
<filter id="filter9_d_1_61" x="35" y="108" width="40" height="40" filterUnits="userSpaceOnUse" color-interpolation-filters="sRGB">
<feFlood flood-opacity="0" result="BackgroundImageFix"/>
<feColorMatrix in="SourceAlpha" type="matrix" values="0 0 0 0 0 0 0 0 0 0 0 0 0 0 0 0 0 0 127 0" result="hardAlpha"/>
<feOffset dy="4"/>
<feGaussianBlur stdDeviation="2"/>
<feComposite in2="hardAlpha" operator="out"/>
<feColorMatrix type="matrix" values="0 0 0 0 0 0 0 0 0 0 0 0 0 0 0 0 0 0 0.25 0"/>
<feBlend mode="normal" in2="BackgroundImageFix" result="effect1_dropShadow_1_61"/>
<feBlend mode="normal" in="SourceGraphic" in2="effect1_dropShadow_1_61" result="shape"/>
</filter>
<filter id="filter10_d_1_61" x="70" y="108" width="40" height="40" filterUnits="userSpaceOnUse" color-interpolation-filters="sRGB">
<feFlood flood-opacity="0" result="BackgroundImageFix"/>
<feColorMatrix in="SourceAlpha" type="matrix" values="0 0 0 0 0 0 0 0 0 0 0 0 0 0 0 0 0 0 127 0" result="hardAlpha"/>
<feOffset dy="4"/>
<feGaussianBlur stdDeviation="2"/>
<feComposite in2="hardAlpha" operator="out"/>
<feColorMatrix type="matrix" values="0 0 0 0 0 0 0 0 0 0 0 0 0 0 0 0 0 0 0.25 0"/>
<feBlend mode="normal" in2="BackgroundImageFix" result="effect1_dropShadow_1_61"/>
<feBlend mode="normal" in="SourceGraphic" in2="effect1_dropShadow_1_61" result="shape"/>
</filter>
<filter id="filter11_d_1_61" x="105" y="108" width="40" height="40" filterUnits="userSpaceOnUse" color-interpolation-filters="sRGB">
<feFlood flood-opacity="0" result="BackgroundImageFix"/>
<feColorMatrix in="SourceAlpha" type="matrix" values="0 0 0 0 0 0 0 0 0 0 0 0 0 0 0 0 0 0 127 0" result="hardAlpha"/>
<feOffset dy="4"/>
<feGaussianBlur stdDeviation="2"/>
<feComposite in2="hardAlpha" operator="out"/>
<feColorMatrix type="matrix" values="0 0 0 0 0 0 0 0 0 0 0 0 0 0 0 0 0 0 0.25 0"/>
<feBlend mode="normal" in2="BackgroundImageFix" result="effect1_dropShadow_1_61"/>
<feBlend mode="normal" in="SourceGraphic" in2="effect1_dropShadow_1_61" result="shape"/>
</filter>
<filter id="filter12_d_1_61" x="0" y="38" width="40" height="40" filterUnits="userSpaceOnUse" color-interpolation-filters="sRGB">
<feFlood flood-opacity="0" result="BackgroundImageFix"/>
<feColorMatrix in="SourceAlpha" type="matrix" values="0 0 0 0 0 0 0 0 0 0 0 0 0 0 0 0 0 0 127 0" result="hardAlpha"/>
<feOffset dy="4"/>
<feGaussianBlur stdDeviation="2"/>
<feComposite in2="hardAlpha" operator="out"/>
<feColorMatrix type="matrix" values="0 0 0 0 0 0 0 0 0 0 0 0 0 0 0 0 0 0 0.25 0"/>
<feBlend mode="normal" in2="BackgroundImageFix" result="effect1_dropShadow_1_61"/>
<feBlend mode="normal" in="SourceGraphic" in2="effect1_dropShadow_1_61" result="shape"/>
</filter>
<filter id="filter13_d_1_61" x="35" y="38" width="40" height="40" filterUnits="userSpaceOnUse" color-interpolation-filters="sRGB">
<feFlood flood-opacity="0" result="BackgroundImageFix"/>
<feColorMatrix in="SourceAlpha" type="matrix" values="0 0 0 0 0 0 0 0 0 0 0 0 0 0 0 0 0 0 127 0" result="hardAlpha"/>
<feOffset dy="4"/>
<feGaussianBlur stdDeviation="2"/>
<feComposite in2="hardAlpha" operator="out"/>
<feColorMatrix type="matrix" values="0 0 0 0 0 0 0 0 0 0 0 0 0 0 0 0 0 0 0.25 0"/>
<feBlend mode="normal" in2="BackgroundImageFix" result="effect1_dropShadow_1_61"/>
<feBlend mode="normal" in="SourceGraphic" in2="effect1_dropShadow_1_61" result="shape"/>
</filter>
<filter id="filter14_d_1_61" x="70" y="38" width="40" height="40" filterUnits="userSpaceOnUse" color-interpolation-filters="sRGB">
<feFlood flood-opacity="0" result="BackgroundImageFix"/>
<feColorMatrix in="SourceAlpha" type="matrix" values="0 0 0 0 0 0 0 0 0 0 0 0 0 0 0 0 0 0 127 0" result="hardAlpha"/>
<feOffset dy="4"/>
<feGaussianBlur stdDeviation="2"/>
<feComposite in2="hardAlpha" operator="out"/>
<feColorMatrix type="matrix" values="0 0 0 0 0 0 0 0 0 0 0 0 0 0 0 0 0 0 0.25 0"/>
<feBlend mode="normal" in2="BackgroundImageFix" result="effect1_dropShadow_1_61"/>
<feBlend mode="normal" in="SourceGraphic" in2="effect1_dropShadow_1_61" result="shape"/>
</filter>
<filter id="filter15_d_1_61" x="105" y="38" width="40" height="40" filterUnits="userSpaceOnUse" color-interpolation-filters="sRGB">
<feFlood flood-opacity="0" result="BackgroundImageFix"/>
<feColorMatrix in="SourceAlpha" type="matrix" values="0 0 0 0 0 0 0 0 0 0 0 0 0 0 0 0 0 0 127 0" result="hardAlpha"/>
<feOffset dy="4"/>
<feGaussianBlur stdDeviation="2"/>
<feComposite in2="hardAlpha" operator="out"/>
<feColorMatrix type="matrix" values="0 0 0 0 0 0 0 0 0 0 0 0 0 0 0 0 0 0 0.25 0"/>
<feBlend mode="normal" in2="BackgroundImageFix" result="effect1_dropShadow_1_61"/>
<feBlend mode="normal" in="SourceGraphic" in2="effect1_dropShadow_1_61" result="shape"/>
</filter>
<filter id="filter16_d_1_61" x="159" y="40" width="24" height="24" filterUnits="userSpaceOnUse" color-interpolation-filters="sRGB">
<feFlood flood-opacity="0" result="BackgroundImageFix"/>
<feColorMatrix in="SourceAlpha" type="matrix" values="0 0 0 0 0 0 0 0 0 0 0 0 0 0 0 0 0 0 127 0" result="hardAlpha"/>
<feOffset dy="4"/>
<feGaussianBlur stdDeviation="2"/>
<feComposite in2="hardAlpha" operator="out"/>
<feColorMatrix type="matrix" values="0 0 0 0 0 0 0 0 0 0 0 0 0 0 0 0 0 0 0.25 0"/>
<feBlend mode="normal" in2="BackgroundImageFix" result="effect1_dropShadow_1_61"/>
<feBlend mode="normal" in="SourceGraphic" in2="effect1_dropShadow_1_61" result="shape"/>
</filter>
<filter id="filter17_d_1_61" x="238" y="3" width="40" height="40" filterUnits="userSpaceOnUse" color-interpolation-filters="sRGB">
<feFlood flood-opacity="0" result="BackgroundImageFix"/>
<feColorMatrix in="SourceAlpha" type="matrix" values="0 0 0 0 0 0 0 0 0 0 0 0 0 0 0 0 0 0 127 0" result="hardAlpha"/>
<feOffset dy="4"/>
<feGaussianBlur stdDeviation="2"/>
<feComposite in2="hardAlpha" operator="out"/>
<feColorMatrix type="matrix" values="0 0 0 0 0 0 0 0 0 0 0 0 0 0 0 0 0 0 0.25 0"/>
<feBlend mode="normal" in2="BackgroundImageFix" result="effect1_dropShadow_1_61"/>
<feBlend mode="normal" in="SourceGraphic" in2="effect1_dropShadow_1_61" result="shape"/>
</filter>
<filter id="filter18_d_1_61" x="273" y="3" width="40" height="40" filterUnits="userSpaceOnUse" color-interpolation-filters="sRGB">
<feFlood flood-opacity="0" result="BackgroundImageFix"/>
<feColorMatrix in="SourceAlpha" type="matrix" values="0 0 0 0 0 0 0 0 0 0 0 0 0 0 0 0 0 0 127 0" result="hardAlpha"/>
<feOffset dy="4"/>
<feGaussianBlur stdDeviation="2"/>
<feComposite in2="hardAlpha" operator="out"/>
<feColorMatrix type="matrix" values="0 0 0 0 0 0 0 0 0 0 0 0 0 0 0 0 0 0 0.25 0"/>
<feBlend mode="normal" in2="BackgroundImageFix" result="effect1_dropShadow_1_61"/>
<feBlend mode="normal" in="SourceGraphic" in2="effect1_dropShadow_1_61" result="shape"/>
</filter>
<filter id="filter19_d_1_61" x="308" y="3" width="40" height="40" filterUnits="userSpaceOnUse" color-interpolation-filters="sRGB">
<feFlood flood-opacity="0" result="BackgroundImageFix"/>
<feColorMatrix in="SourceAlpha" type="matrix" values="0 0 0 0 0 0 0 0 0 0 0 0 0 0 0 0 0 0 127 0" result="hardAlpha"/>
<feOffset dy="4"/>
<feGaussianBlur stdDeviation="2"/>
<feComposite in2="hardAlpha" operator="out"/>
<feColorMatrix type="matrix" values="0 0 0 0 0 0 0 0 0 0 0 0 0 0 0 0 0 0 0.25 0"/>
<feBlend mode="normal" in2="BackgroundImageFix" result="effect1_dropShadow_1_61"/>
<feBlend mode="normal" in="SourceGraphic" in2="effect1_dropShadow_1_61" result="shape"/>
</filter>
<filter id="filter20_d_1_61" x="343" y="3" width="40" height="40" filterUnits="userSpaceOnUse" color-interpolation-filters="sRGB">
<feFlood flood-opacity="0" result="BackgroundImageFix"/>
<feColorMatrix in="SourceAlpha" type="matrix" values="0 0 0 0 0 0 0 0 0 0 0 0 0 0 0 0 0 0 127 0" result="hardAlpha"/>
<feOffset dy="4"/>
<feGaussianBlur stdDeviation="2"/>
<feComposite in2="hardAlpha" operator="out"/>
<feColorMatrix type="matrix" values="0 0 0 0 0 0 0 0 0 0 0 0 0 0 0 0 0 0 0.25 0"/>
<feBlend mode="normal" in2="BackgroundImageFix" result="effect1_dropShadow_1_61"/>
<feBlend mode="normal" in="SourceGraphic" in2="effect1_dropShadow_1_61" result="shape"/>
</filter>
<filter id="filter21_d_1_61" x="238" y="73" width="40" height="40" filterUnits="userSpaceOnUse" color-interpolation-filters="sRGB">
<feFlood flood-opacity="0" result="BackgroundImageFix"/>
<feColorMatrix in="SourceAlpha" type="matrix" values="0 0 0 0 0 0 0 0 0 0 0 0 0 0 0 0 0 0 127 0" result="hardAlpha"/>
<feOffset dy="4"/>
<feGaussianBlur stdDeviation="2"/>
<feComposite in2="hardAlpha" operator="out"/>
<feColorMatrix type="matrix" values="0 0 0 0 0 0 0 0 0 0 0 0 0 0 0 0 0 0 0.25 0"/>
<feBlend mode="normal" in2="BackgroundImageFix" result="effect1_dropShadow_1_61"/>
<feBlend mode="normal" in="SourceGraphic" in2="effect1_dropShadow_1_61" result="shape"/>
</filter>
<filter id="filter22_d_1_61" x="273" y="73" width="40" height="40" filterUnits="userSpaceOnUse" color-interpolation-filters="sRGB">
<feFlood flood-opacity="0" result="BackgroundImageFix"/>
<feColorMatrix in="SourceAlpha" type="matrix" values="0 0 0 0 0 0 0 0 0 0 0 0 0 0 0 0 0 0 127 0" result="hardAlpha"/>
<feOffset dy="4"/>
<feGaussianBlur stdDeviation="2"/>
<feComposite in2="hardAlpha" operator="out"/>
<feColorMatrix type="matrix" values="0 0 0 0 0 0 0 0 0 0 0 0 0 0 0 0 0 0 0.25 0"/>
<feBlend mode="normal" in2="BackgroundImageFix" result="effect1_dropShadow_1_61"/>
<feBlend mode="normal" in="SourceGraphic" in2="effect1_dropShadow_1_61" result="shape"/>
</filter>
<filter id="filter23_d_1_61" x="308" y="73" width="40" height="40" filterUnits="userSpaceOnUse" color-interpolation-filters="sRGB">
<feFlood flood-opacity="0" result="BackgroundImageFix"/>
<feColorMatrix in="SourceAlpha" type="matrix" values="0 0 0 0 0 0 0 0 0 0 0 0 0 0 0 0 0 0 127 0" result="hardAlpha"/>
<feOffset dy="4"/>
<feGaussianBlur stdDeviation="2"/>
<feComposite in2="hardAlpha" operator="out"/>
<feColorMatrix type="matrix" values="0 0 0 0 0 0 0 0 0 0 0 0 0 0 0 0 0 0 0.25 0"/>
<feBlend mode="normal" in2="BackgroundImageFix" result="effect1_dropShadow_1_61"/>
<feBlend mode="normal" in="SourceGraphic" in2="effect1_dropShadow_1_61" result="shape"/>
</filter>
<filter id="filter24_d_1_61" x="343" y="73" width="40" height="40" filterUnits="userSpaceOnUse" color-interpolation-filters="sRGB">
<feFlood flood-opacity="0" result="BackgroundImageFix"/>
<feColorMatrix in="SourceAlpha" type="matrix" values="0 0 0 0 0 0 0 0 0 0 0 0 0 0 0 0 0 0 127 0" result="hardAlpha"/>
<feOffset dy="4"/>
<feGaussianBlur stdDeviation="2"/>
<feComposite in2="hardAlpha" operator="out"/>
<feColorMatrix type="matrix" values="0 0 0 0 0 0 0 0 0 0 0 0 0 0 0 0 0 0 0.25 0"/>
<feBlend mode="normal" in2="BackgroundImageFix" result="effect1_dropShadow_1_61"/>
<feBlend mode="normal" in="SourceGraphic" in2="effect1_dropShadow_1_61" result="shape"/>
</filter>
<filter id="filter25_d_1_61" x="238" y="108" width="40" height="40" filterUnits="userSpaceOnUse" color-interpolation-filters="sRGB">
<feFlood flood-opacity="0" result="BackgroundImageFix"/>
<feColorMatrix in="SourceAlpha" type="matrix" values="0 0 0 0 0 0 0 0 0 0 0 0 0 0 0 0 0 0 127 0" result="hardAlpha"/>
<feOffset dy="4"/>
<feGaussianBlur stdDeviation="2"/>
<feComposite in2="hardAlpha" operator="out"/>
<feColorMatrix type="matrix" values="0 0 0 0 0 0 0 0 0 0 0 0 0 0 0 0 0 0 0.25 0"/>
<feBlend mode="normal" in2="BackgroundImageFix" result="effect1_dropShadow_1_61"/>
<feBlend mode="normal" in="SourceGraphic" in2="effect1_dropShadow_1_61" result="shape"/>
</filter>
<filter id="filter26_d_1_61" x="273" y="108" width="40" height="40" filterUnits="userSpaceOnUse" color-interpolation-filters="sRGB">
<feFlood flood-opacity="0" result="BackgroundImageFix"/>
<feColorMatrix in="SourceAlpha" type="matrix" values="0 0 0 0 0 0 0 0 0 0 0 0 0 0 0 0 0 0 127 0" result="hardAlpha"/>
<feOffset dy="4"/>
<feGaussianBlur stdDeviation="2"/>
<feComposite in2="hardAlpha" operator="out"/>
<feColorMatrix type="matrix" values="0 0 0 0 0 0 0 0 0 0 0 0 0 0 0 0 0 0 0.25 0"/>
<feBlend mode="normal" in2="BackgroundImageFix" result="effect1_dropShadow_1_61"/>
<feBlend mode="normal" in="SourceGraphic" in2="effect1_dropShadow_1_61" result="shape"/>
</filter>
<filter id="filter27_d_1_61" x="308" y="108" width="40" height="40" filterUnits="userSpaceOnUse" color-interpolation-filters="sRGB">
<feFlood flood-opacity="0" result="BackgroundImageFix"/>
<feColorMatrix in="SourceAlpha" type="matrix" values="0 0 0 0 0 0 0 0 0 0 0 0 0 0 0 0 0 0 127 0" result="hardAlpha"/>
<feOffset dy="4"/>
<feGaussianBlur stdDeviation="2"/>
<feComposite in2="hardAlpha" operator="out"/>
<feColorMatrix type="matrix" values="0 0 0 0 0 0 0 0 0 0 0 0 0 0 0 0 0 0 0.25 0"/>
<feBlend mode="normal" in2="BackgroundImageFix" result="effect1_dropShadow_1_61"/>
<feBlend mode="normal" in="SourceGraphic" in2="effect1_dropShadow_1_61" result="shape"/>
</filter>
<filter id="filter28_d_1_61" x="343" y="108" width="40" height="40" filterUnits="userSpaceOnUse" color-interpolation-filters="sRGB">
<feFlood flood-opacity="0" result="BackgroundImageFix"/>
<feColorMatrix in="SourceAlpha" type="matrix" values="0 0 0 0 0 0 0 0 0 0 0 0 0 0 0 0 0 0 127 0" result="hardAlpha"/>
<feOffset dy="4"/>
<feGaussianBlur stdDeviation="2"/>
<feComposite in2="hardAlpha" operator="out"/>
<feColorMatrix type="matrix" values="0 0 0 0 0 0 0 0 0 0 0 0 0 0 0 0 0 0 0.25 0"/>
<feBlend mode="normal" in2="BackgroundImageFix" result="effect1_dropShadow_1_61"/>
<feBlend mode="normal" in="SourceGraphic" in2="effect1_dropShadow_1_61" result="shape"/>
</filter>
<filter id="filter29_d_1_61" x="238" y="38" width="40" height="40" filterUnits="userSpaceOnUse" color-interpolation-filters="sRGB">
<feFlood flood-opacity="0" result="BackgroundImageFix"/>
<feColorMatrix in="SourceAlpha" type="matrix" values="0 0 0 0 0 0 0 0 0 0 0 0 0 0 0 0 0 0 127 0" result="hardAlpha"/>
<feOffset dy="4"/>
<feGaussianBlur stdDeviation="2"/>
<feComposite in2="hardAlpha" operator="out"/>
<feColorMatrix type="matrix" values="0 0 0 0 0 0 0 0 0 0 0 0 0 0 0 0 0 0 0.25 0"/>
<feBlend mode="normal" in2="BackgroundImageFix" result="effect1_dropShadow_1_61"/>
<feBlend mode="normal" in="SourceGraphic" in2="effect1_dropShadow_1_61" result="shape"/>
</filter>
<filter id="filter30_d_1_61" x="273" y="38" width="40" height="40" filterUnits="userSpaceOnUse" color-interpolation-filters="sRGB">
<feFlood flood-opacity="0" result="BackgroundImageFix"/>
<feColorMatrix in="SourceAlpha" type="matrix" values="0 0 0 0 0 0 0 0 0 0 0 0 0 0 0 0 0 0 127 0" result="hardAlpha"/>
<feOffset dy="4"/>
<feGaussianBlur stdDeviation="2"/>
<feComposite in2="hardAlpha" operator="out"/>
<feColorMatrix type="matrix" values="0 0 0 0 0 0 0 0 0 0 0 0 0 0 0 0 0 0 0.25 0"/>
<feBlend mode="normal" in2="BackgroundImageFix" result="effect1_dropShadow_1_61"/>
<feBlend mode="normal" in="SourceGraphic" in2="effect1_dropShadow_1_61" result="shape"/>
</filter>
<filter id="filter31_d_1_61" x="308" y="38" width="40" height="40" filterUnits="userSpaceOnUse" color-interpolation-filters="sRGB">
<feFlood flood-opacity="0" result="BackgroundImageFix"/>
<feColorMatrix in="SourceAlpha" type="matrix" values="0 0 0 0 0 0 0 0 0 0 0 0 0 0 0 0 0 0 127 0" result="hardAlpha"/>
<feOffset dy="4"/>
<feGaussianBlur stdDeviation="2"/>
<feComposite in2="hardAlpha" operator="out"/>
<feColorMatrix type="matrix" values="0 0 0 0 0 0 0 0 0 0 0 0 0 0 0 0 0 0 0.25 0"/>
<feBlend mode="normal" in2="BackgroundImageFix" result="effect1_dropShadow_1_61"/>
<feBlend mode="normal" in="SourceGraphic" in2="effect1_dropShadow_1_61" result="shape"/>
</filter>
<filter id="filter32_d_1_61" x="343" y="38" width="40" height="40" filterUnits="userSpaceOnUse" color-interpolation-filters="sRGB">
<feFlood flood-opacity="0" result="BackgroundImageFix"/>
<feColorMatrix in="SourceAlpha" type="matrix" values="0 0 0 0 0 0 0 0 0 0 0 0 0 0 0 0 0 0 127 0" result="hardAlpha"/>
<feOffset dy="4"/>
<feGaussianBlur stdDeviation="2"/>
<feComposite in2="hardAlpha" operator="out"/>
<feColorMatrix type="matrix" values="0 0 0 0 0 0 0 0 0 0 0 0 0 0 0 0 0 0 0.25 0"/>
<feBlend mode="normal" in2="BackgroundImageFix" result="effect1_dropShadow_1_61"/>
<feBlend mode="normal" in="SourceGraphic" in2="effect1_dropShadow_1_61" result="shape"/>
</filter>
</defs>
</svg>
